# xmcd
#
# Track frame offsets:
#	150
#	18915
#	37820
#	57937
#	75665
#	95815
#	113197
#	132477
#
# Disc length: 2006 seconds
#
# Revision: 2
# Processed by: cddbd v1.5.2PL0 Copyright (c) Steve Scherf et al.
# Submitted via: EasyCDDAExtractor 15.3.0.1
#
DISCID=6107d408
DTITLE=Ashley - Abrazame
DYEAR=1999
DGENRE=Latin
TTITLE0=Abrazame
TTITLE1=Aqui Si Hay
TTITLE2=Te Fuiste
TTITLE3=Bello
TTITLE4=Si Tu Me Llevas Contigo
TTITLE5=El Nene De La Escuela
TTITLE6=Dime
TTITLE7=Me Gusta Bailar
EXTD=YEAR: 1999
EXTT0=
EXTT1=
EXTT2=
EXTT3=
EXTT4=
EXTT5=
EXTT6=
EXTT7=
PLAYORDER=
